<svg version="1.0" xmlns="http://www.w3.org/2000/svg"
 width="500.000000pt" height="500.000000pt" viewBox="0 0 500.000000 500.000000"
 preserveAspectRatio="xMidYMid meet">

<g transform="translate(0.000000,500.000000) scale(0.100000,-0.100000)"
fill="#0091EA" stroke="none">
<path d="M2293 4830 c-17 -4 -46 -16 -64 -27 -46 -26 -529 -627 -529 -657 0
-13 9 -35 21 -50 l21 -26 236 2 236 3 121 152 120 152 338 0 337 1 0 -85 0
-85 -93 0 c-145 0 -137 19 -137 -333 l0 -287 -98 0 c-110 0 -193 -18 -258 -56
-63 -37 -139 -125 -166 -192 l-23 -57 0 -683 0 -684 24 -19 c34 -27 75 -24
100 7 20 26 21 39 21 310 l0 284 865 0 865 0 0 -624 0 -625 -216 -3 c-213 -3
-216 -3 -235 -27 -26 -32 -24 -73 4 -99 22 -21 31 -22 235 -22 l212 0 0 -360
c0 -379 -3 -408 -45 -424 -9 -3 -115 -6 -236 -6 l-220 0 -24 -25 c-32 -31 -32
-69 0 -100 l24 -25 224 0 c250 0 287 7 345 63 19 18 42 49 53 69 19 37 19 74
17 1525 l-3 1488 -27 58 c-15 32 -50 80 -80 110 -90 88 -173 117 -339 117
l-89 0 0 284 c0 352 7 334 -138 338 l-97 3 -3 83 -3 82 103 0 c87 0 111 4 153
24 90 42 135 112 135 208 0 30 -9 71 -19 94 -24 53 -91 109 -146 123 -50 13
-1469 14 -1522 1z m1515 -162 c35 -38 37 -70 7 -106 l-27 -32 -677 0 c-445 0
-688 -4 -708 -10 -21 -8 -66 -56 -149 -160 l-119 -149 -102 -1 c-57 0 -103 2
-103 5 0 11 362 455 378 465 11 6 291 10 748 10 l731 0 21 -22z m-360 -370
l-3 -83 -82 -3 -83 -3 0 86 0 85 85 0 86 0 -3 -82z m232 -468 l0 -240 -315 0
-315 0 0 240 0 240 315 0 315 0 0 -240z m415 -412 c89 -48 126 -119 133 -250
3 -54 3 -98 1 -98 -2 0 -56 11 -119 25 -79 18 -161 28 -260 32 -180 7 -317
-14 -530 -82 -177 -56 -289 -75 -440 -75 -120 0 -199 9 -312 36 l-68 16 0 112
c1 164 32 231 132 280 l53 27 690 -3 c620 -3 693 -5 720 -20z m-95 -453 c52
-8 124 -23 160 -32 l65 -18 3 -133 3 -132 -866 0 -865 0 0 111 c0 95 2 110 15
105 67 -25 204 -40 375 -40 208 1 246 7 480 79 80 25 181 51 225 59 106 19
288 19 405 1z"/>
<path d="M673 3578 c-33 -16 -43 -59 -43 -195 0 -68 36 -633 80 -1255 60 -849
80 -1182 80 -1334 0 -226 8 -265 63 -322 64 -67 94 -75 278 -80 l166 -4 15
-32 c38 -79 130 -152 230 -181 49 -14 148 -15 905 -13 l849 3 76 38 c87 43
142 98 185 186 l28 56 0 495 0 495 -28 58 c-57 116 -172 199 -298 217 -88 13
-1575 12 -1664 -1 -38 -5 -90 -19 -115 -31 -70 -34 -153 -119 -186 -191 l-29
-62 -3 -443 -3 -442 -125 0 c-125 0 -156 7 -181 39 -9 11 -12 69 -13 189 l0
172 49 0 c64 0 101 28 101 76 0 53 -28 74 -100 74 -33 0 -60 4 -60 10 0 5 -31
453 -70 995 -38 542 -70 996 -70 1010 l0 25 545 0 545 0 -6 -67 c-3 -38 -23
-300 -44 -583 -42 -581 -42 -578 23 -594 34 -9 41 -7 62 15 23 24 24 32 69
654 30 404 46 694 46 808 0 175 0 178 -25 202 l-24 25 -643 -1 c-432 0 -650
-4 -665 -11z m1207 -218 l0 -80 -550 0 -550 0 0 80 0 80 550 0 550 0 0 -80z
m1399 -1806 c63 -18 132 -81 152 -140 10 -29 14 -98 14 -259 l0 -220 -218 -5
c-202 -5 -220 -7 -233 -24 -18 -25 -18 -67 0 -92 13 -17 31 -19 233 -24 l218
-5 0 -150 c-1 -169 -11 -203 -78 -262 -76 -67 -34 -64 -957 -61 l-835 3 -45
25 c-27 15 -58 45 -78 75 l-34 50 287 5 c287 5 287 5 306 29 17 21 19 41 19
205 0 170 -1 184 -20 204 -20 22 -25 22 -310 22 l-290 0 0 85 0 85 912 0 912
0 23 22 c28 26 30 67 4 99 l-19 24 -916 3 -916 2 0 68 c0 118 66 210 171 240
21 6 344 11 840 11 704 1 812 -1 858 -15z m-1399 -849 l0 -85 -235 0 -235 0 0
85 0 85 235 0 235 0 0 -85z"/>
<path d="M2532 597 c-27 -29 -28 -67 -3 -98 19 -24 20 -24 278 -27 251 -3 260
-2 286 18 34 27 37 80 7 110 -19 19 -33 20 -283 20 -263 0 -264 0 -285 -23z"/>
<path d="M1302 2489 c-75 -16 -145 -124 -184 -281 -19 -78 -20 -94 -9 -142 7
-30 25 -72 41 -94 36 -50 118 -92 179 -92 88 0 183 64 218 147 36 87 -12 292
-93 398 -41 55 -94 77 -152 64z m56 -186 c30 -59 52 -134 54 -181 3 -83 -81
-124 -139 -66 -23 23 -25 31 -19 80 9 74 60 204 81 204 3 0 13 -17 23 -37z"/>
<path d="M2922 2157 c-20 -21 -22 -34 -22 -124 0 -86 3 -104 21 -127 25 -31
66 -35 100 -7 18 14 23 31 27 80 l4 61 314 0 314 0 0 -209 c0 -196 1 -210 21
-235 28 -36 80 -36 108 0 20 25 21 39 21 279 0 240 -1 254 -21 279 l-20 26
-423 0 -423 0 -21 -23z"/>
</g>
</svg>
